<?xml version="1.0" encoding="UTF-8"?>
<svg width="157px" height="23px" viewBox="0 0 157 23" version="1.1" xmlns="http://www.w3.org/2000/svg" xmlns:xlink="http://www.w3.org/1999/xlink">
    <!-- Generator: Sketch 43.2 (39069) - http://www.bohemiancoding.com/sketch -->
    <title>Group 2</title>
    <desc>Created with Sketch.</desc>
    <defs></defs>
    <g id="Page-1" stroke="none" stroke-width="1" fill="none" fill-rule="evenodd">
        <g id="03" transform="translate(-640.000000, -476.000000)">
            <g id="Group-4" transform="translate(598.000000, 432.000000)">
                <g id="Powered-by-+-Group-2-+-See-how-easy-it-is-t-2-+-Line-Copy-29">
                    <g id="Powered-by-+-Group-2-+-See-how-easy-it-is-t-2" transform="translate(0.375000, 23.000000)">
                        <g id="Powered-by-+-Group-2-+-See-how-easy-it-is-t"></g>
                    </g>
                </g>
                <g id="Group-2" transform="translate(42.000000, 44.000000)">
                    <g id="Group-2-Copy" transform="translate(38.758817, 6.289063)" fill="#25B570">
                        <path d="M0.120257163,10.663225 L1.35746012,9.1835616 C2.47776724,10.1584547 3.59760109,10.713388 5.05222086,10.713388 C6.32293081,10.713388 7.12567875,10.1247589 7.12567875,9.23362934 L7.12567875,9.19993356 C7.12567875,8.35991878 6.65724348,7.90521617 4.48373789,7.40139767 C1.99257847,6.79630147 0.588219174,6.05651735 0.588219174,3.88713753 L0.588219174,3.85344176 C0.588219174,1.83616887 2.26025577,0.440268953 4.58425885,0.440268953 C6.28942383,0.440268953 7.64390125,0.961411267 8.83084373,1.92002757 L7.72729011,3.48345451 C6.67399697,2.69350747 5.62079849,2.27345248 4.55075186,2.27345248 C3.34705589,2.27345248 2.64492357,2.89492064 2.64492357,3.66840054 L2.64492357,3.7021915 C2.64492357,4.6105497 3.17989956,5.01413753 5.42013517,5.55174699 C7.89444644,6.15674801 9.18190989,7.04787757 9.18190989,8.99861557 L9.18190989,9.03231135 C9.18190989,11.2345303 7.45999142,12.5465715 5.00243364,12.5465715 C3.21340655,12.5465715 1.52461646,11.9242467 0.120257163,10.663225" id="Fill-53"></path>
                        <path d="M10.5321847,9.14984679 L10.5321847,3.50075929 L12.5553821,3.50075929 L12.5553821,8.54484578 C12.5553821,9.92342187 13.240761,10.7133689 14.4444569,10.7133689 C15.6150245,10.7133689 16.4340527,9.88963091 16.4340527,8.51115 L16.4340527,3.50075929 L18.4572501,3.50075929 L18.4572501,12.3779784 L16.4340527,12.3779784 L16.4340527,11.4626716 C15.7231177,12.1499132 15.0464469,12.5629244 13.6756893,12.5629244 C11.6859988,12.5629244 10.5321847,11.2181393 10.5321847,9.14984679" id="Fill-55"></path>
                        <path d="M20.6197855,3.50076881 L22.6429829,3.50076881 L22.6429829,4.98043224 C23.1943338,3.65201906 24.2144985,3.26480318 25.7692607,3.33219474 L25.7692607,5.13615622 L25.6523648,5.13615622 C23.8800912,5.13615622 22.6429829,6.32740665 22.6429829,8.99860606 L22.6429829,12.3779879 L20.6197855,12.3779879 L20.6197855,3.50076881 Z" id="Fill-57"></path>
                        <polygon id="Fill-59" points="26.4918001 3.50076881 28.664927 3.50076881 31.0391906 9.67794719 33.4302077 3.50076881 35.5534528 3.50076881 31.9420809 12.4453795 30.1195468 12.4453795"></polygon>
                        <path d="M42.1047695,7.31751993 C41.9711201,6.00547872 41.2018792,4.98042272 39.8646285,4.98042272 C38.6269523,4.98042272 37.7576637,5.93808716 37.5737538,7.31751993 L42.1047695,7.31751993 Z M35.5677832,7.97268387 L35.5677832,7.93898809 C35.5677832,5.4004777 37.3567156,3.31581326 39.8809088,3.31581326 C42.6901006,3.31581326 44.1112134,5.535356 44.1112134,8.09023834 C44.1112134,8.27518437 44.0944599,8.46013041 44.0777064,8.66240025 L37.5905073,8.66240025 C37.8079241,10.1083679 38.8276156,10.9156388 40.1318326,10.9156388 C41.1181117,10.9156388 41.8207173,10.5456515 42.5228496,9.85593514 L43.7097921,10.9156388 C42.8740104,11.9242276 41.7201963,12.5793916 40.0983256,12.5793916 C37.5406254,12.5793916 35.5677832,10.7133689 35.5677832,7.97268387 L35.5677832,7.97268387 Z" id="Fill-61"></path>
                        <polygon id="Fill-63" points="54.8331185 0.608833505 57.022999 0.608833505 60.584205 6.61267852 64.1453164 0.608833505 66.3356701 0.608833505 66.3356701 12.3779879 64.279439 12.3779879 64.279439 3.93814761 60.584205 9.92466881 60.5175696 9.92466881 56.8558426 3.97098671 56.8558426 12.3779879 54.8331185 12.3779879"></polygon>
                        <path d="M75.1742837,7.98996009 L75.1742837,7.95626432 C75.1742837,6.39274219 74.0539766,5.09802479 72.4657075,5.09802479 C70.8439314,5.09802479 69.8073917,6.37541837 69.8073917,7.92256854 L69.8073917,7.95626432 C69.8073917,9.5033193 70.9276988,10.8145038 72.4992145,10.8145038 C74.1377441,10.8145038 75.1742837,9.51978644 75.1742837,7.98996009 M67.7846676,7.98996009 L67.7846676,7.95626432 C67.7846676,5.41689726 69.7906382,3.31586085 72.4992145,3.31586085 C75.2077907,3.31586085 77.1974811,5.38405815 77.1974811,7.92256854 L77.1974811,7.95626432 C77.1974811,10.4783076 75.1905639,12.579344 72.4657075,12.579344 C69.7738847,12.579344 67.7846676,10.5120033 67.7846676,7.98996009" id="Fill-65"></path>
                        <polygon id="Fill-67" points="88.5133402 0.104082188 90.5365376 0.104082188 90.5365376 7.43510296 94.1977913 3.50078785 96.6558223 3.50078785 93.1449714 7.11527864 96.7727182 12.3780069 94.4324349 12.3780069 91.7741191 8.54487433 90.5365376 9.83959173 90.5365376 12.3780069 88.5133402 12.3780069"></polygon>
                        <path d="M103.145359,7.31751993 C103.012183,6.00547872 102.242942,4.98042272 100.905597,4.98042272 C99.6680154,4.98042272 98.7991054,5.93808716 98.6151956,7.31751993 L103.145359,7.31751993 Z M96.608373,7.97268387 L96.608373,7.93898809 C96.608373,5.4004777 98.3976841,3.31581326 100.921972,3.31581326 C103.73069,3.31581326 105.152182,5.535356 105.152182,8.09023834 C105.152182,8.27518437 105.13505,8.46013041 105.118675,8.66240025 L98.6314758,8.66240025 C98.8488926,10.1083679 99.8690574,10.9156388 101.172896,10.9156388 C102.159553,10.9156388 102.861686,10.5456515 103.563913,9.85593514 L104.750855,10.9156388 C103.9146,11.9242276 102.761165,12.5793916 101.139389,12.5793916 C98.5815939,12.5793916 96.608373,10.7133689 96.608373,7.97268387 L96.608373,7.97268387 Z" id="Fill-69"></path>
                        <polygon id="Fill-71" points="51.2164082 3.50076881 48.7737109 9.55430082 46.3461579 3.50076881 44.2396663 3.50076881 47.7171996 12.1725769 45.9017644 16.6715343 48.0083507 16.6715343 53.3228998 3.50076881"></polygon>
                        <g id="Group" transform="translate(115.026166, 3.414062)">
                            <path d="M1.58707179,0.0102530659 C1.82985548,0.0102530659 2.06847446,0.074598674 2.29829075,0.200529502 C2.53170384,0.323890312 2.7147618,0.505409654 2.84320525,0.739566748 C2.97363641,0.971724941 3.03866269,1.2148295 3.03866269,1.47154563 C3.03866269,1.7219795 2.97363641,1.96356109 2.84471969,2.19514817 C2.71627624,2.42730636 2.53747764,2.60663643 2.30709343,2.73685062 C2.07992741,2.86382849 1.83922608,2.9281741 1.58707179,2.9281741 C1.33804103,2.9281741 1.09525734,2.86382849 0.86392661,2.73685062 C0.632027959,2.60663643 0.454649155,2.42730636 0.325259174,2.19514817 C0.19842481,1.96356109 0.134439713,1.7219795 0.134439713,1.47154563 C0.134439713,1.2148295 0.19842481,0.971724941 0.330465062,0.739566748 C0.462032051,0.505409654 0.639789465,0.323890312 0.872729293,0.200529502 C1.10462794,0.074598674 1.34267901,0.0102530659 1.58707179,0.0102530659 M1.58707179,0.251739468 C1.38271702,0.251739468 1.18413605,0.304567593 0.992843329,0.408605684 C0.797291242,0.514737863 0.646509793,0.664845887 0.536334271,0.858739383 C0.430796722,1.0558692 0.375141046,1.26032832 0.375141046,1.47154563 C0.375141046,1.67962182 0.42767319,1.88198685 0.534725179,2.07597553 C0.643386261,2.26729901 0.791612092,2.41893001 0.986596263,2.5256333 C1.17741572,2.63281253 1.37912022,2.68659251 1.58707179,2.68659251 C1.79710571,2.68659251 1.99672785,2.63281253 2.18858849,2.5256333 C2.38149031,2.41893001 2.5301894,2.26729901 2.63733604,2.07597553 C2.74230568,1.88198685 2.795879,1.67962182 2.795879,1.47154563 C2.795879,1.26032832 2.74230568,1.0558692 2.63364459,0.858739383 C2.52649795,0.664845887 2.37685233,0.514737863 2.18073233,0.408605684 C1.98745191,0.304567593 1.78782976,0.251739468 1.58707179,0.251739468" id="Fill-73"></path>
                            <path d="M1.67539205,1.46216031 C1.87984147,1.46216031 2.00989402,1.35469553 2.00989402,1.18878666 L2.00989402,1.18412256 C2.00989402,1.00888548 1.88447944,0.913128556 1.67302573,0.913128556 L1.2571226,0.913128556 L1.2571226,1.46216031 L1.67539205,1.46216031 Z M0.971366674,0.651367576 L1.69631025,0.651367576 C1.90075967,0.651367576 2.06110102,0.712191309 2.1655974,0.814896799 C2.25163653,0.90370516 2.30047722,1.02525744 2.30047722,1.16784579 L2.30047722,1.17250989 C2.30047722,1.44121943 2.14004122,1.60236901 1.91467359,1.66785685 L2.35386124,2.28704055 L2.01453199,2.28704055 L1.61500374,1.71687754 L1.2571226,1.71687754 L1.2571226,2.28704055 L0.971366674,2.28704055 L0.971366674,0.651367576 Z" id="Fill-75"></path>
                        </g>
                        <polygon id="Fill-77" points="112.258503 3.50076881 109.815806 9.55430082 107.388253 3.50076881 105.281761 3.50076881 108.759294 12.1725769 106.943954 16.6715343 109.050446 16.6715343 114.364995 3.50076881"></polygon>
                        <path d="M86.4509187,6.72893847 L86.4509187,12.378026 L84.4277213,12.378026 L84.4277213,7.33393948 C84.4277213,5.95536339 83.7423425,5.16541634 82.5386465,5.16541634 C81.3680789,5.16541634 80.5490508,5.98915435 80.5490508,7.36763526 L80.5490508,12.378026 L78.5258534,12.378026 L78.5258534,3.50080688 L80.5490508,3.50080688 L80.5490508,4.41611364 C81.2599858,3.72887209 81.9366566,3.31586085 83.3074142,3.31586085 C85.2971046,3.31586085 86.4509187,4.66064599 86.4509187,6.72893847" id="Fill-79"></path>
                    </g>
                    <path d="M26.1292041,16.3747198 C25.8646503,16.3747198 25.623665,16.2723951 25.4421215,16.1093418 C25.5038349,15.5740168 25.5452927,15.0323144 25.5518238,14.48195 C25.7175603,14.3706778 25.9161413,14.3029055 26.1292041,14.3029055 C26.6952261,14.3029055 27.1585501,14.7682689 27.1585501,15.3410019 C27.1585501,15.9159242 26.6952261,16.3747198 26.1292041,16.3747198 M3.42329734,16.3747198 C2.85718068,16.3747198 2.39385664,15.9159242 2.39385664,15.3410019 C2.39385664,14.7682689 2.85718068,14.3029055 3.42329734,14.3029055 C3.63626549,14.3029055 3.83494111,14.3706778 4.000583,14.48195 C4.00711402,15.0323144 4.04866647,15.5740168 4.11037991,16.1093418 C3.9288364,16.2723951 3.68785111,16.3747198 3.42329734,16.3747198 M26.0620008,11.8290263 C25.7723641,11.8290263 25.4937071,11.8682428 25.2268817,11.9336355 C24.2012271,7.85330532 20.8682282,4.69589679 16.7048429,3.9491641 C16.519324,3.91537314 16.3513158,3.89062483 16.162484,3.86673319 C16.1936247,2.84453277 16.2411403,1.6629913 17.7365553,0.599670608 L17.499924,0 C17.499924,0 14.5858572,0.910737838 14.248137,3.41850321 C14.1028454,2.73611613 12.7438247,1.88248978 12.0710346,1.72048353 L11.736438,2.26313784 C11.736438,2.26313784 12.628254,2.71184375 12.8456708,3.94954485 L12.8453868,3.94954485 L12.8456708,3.94954485 C8.68313734,4.69694383 5.35108502,7.85397162 4.32552507,11.9336355 C4.05869964,11.8682428 3.7801373,11.8290263 3.49050062,11.8290263 C1.56640439,11.8290263 0,13.400544 0,15.3414779 C0,17.2778428 1.56640439,18.8523113 3.49050062,18.8523113 C3.94123588,18.8523113 4.37076897,18.76198 4.76584855,18.6067319 C5.06693818,19.3590806 5.44687336,20.0726886 5.90006958,20.7288044 L8.79738292,18.7643596 L8.77277326,18.7319013 C8.00627724,17.7413977 7.53774731,16.2834367 7.45909107,14.8321386 C7.37210542,13.2312084 7.76065397,11.6410343 8.77684332,10.7064048 C10.8731125,8.91243784 13.1544273,9.73008395 14.5840588,11.4499012 L14.968348,11.4499012 C16.3980741,9.73008395 18.6792943,8.91243784 20.7755634,10.7064048 C21.7917528,11.6410343 22.1803013,13.2312084 22.0934103,14.8321386 C22.0147541,16.2834367 21.5462242,17.7413977 20.7797282,18.7319013 L20.7550238,18.7643596 L23.6524318,20.7288044 C24.1056281,20.0726886 24.4855632,19.3590806 24.7866529,18.6067319 C25.1817324,18.76198 25.6112655,18.8523113 26.0620008,18.8523113 C27.9860024,18.8523113 29.5524068,17.2778428 29.5524068,15.3414779 C29.5524068,13.400544 27.9860024,11.8290263 26.0620008,11.8290263" id="Fill-81-Copy" fill="#00BF6F"></path>
                </g>
            </g>
        </g>
    </g>
</svg>