<svg width="24px" height="24px" viewBox="16 16 24 24" version="1.1" xmlns="http://www.w3.org/2000/svg" xmlns:xlink="http://www.w3.org/1999/xlink">
    <!-- Generator: Sketch 42 (36781) - http://www.bohemiancoding.com/sketch -->
    <desc>Created with Sketch.</desc>
    <defs></defs>
    <g id="Group" stroke="none" stroke-width="1" fill="none" fill-rule="evenodd" transform="translate(16.000000, 16.000000)">
        <g id="-" fill-rule="nonzero" fill="#00BF6F">
            <path d="M21.4519626,9.49662921 L20.877757,9.49662921 C20.5996262,9.49662921 20.3439252,9.32134831 20.2542056,9.06966292 L19.922243,8.26966292 L19.908785,8.23370787 C19.7966355,7.98651685 19.8459813,7.69438202 20.0388785,7.49662921 L20.4471028,7.08764045 C20.9181308,6.61573034 21.1783178,5.98651685 21.1783178,5.31685393 C21.1783178,4.64719101 20.9181308,4.01797753 20.4471028,3.54606742 C19.9760748,3.0741573 19.3480374,2.81348315 18.6796262,2.81348315 C18.011215,2.81348315 17.3831776,3.0741573 16.9121495,3.54606742 L16.5084112,3.95505618 C16.3872897,4.07640449 16.2257944,4.14382022 16.0508411,4.14382022 C15.9566355,4.14382022 15.8624299,4.12134831 15.7771963,4.08539326 L14.9383178,3.73483146 L14.9024299,3.72134831 C14.646729,3.62696629 14.4762617,3.38426966 14.4762617,3.11011236 L14.4762617,2.53483146 C14.4762617,1.15505618 13.3547664,0.0314606742 11.9775701,0.0314606742 C10.6003738,0.0314606742 9.4788785,1.15505618 9.4788785,2.53483146 L9.4788785,3.11011236 C9.4788785,3.37977528 9.30841121,3.62696629 9.05271028,3.72134831 L8.21831776,4.06741573 L8.18242991,4.08089888 C8.09719626,4.12134831 8.00299065,4.13932584 7.90878505,4.13932584 C7.73383178,4.13932584 7.57233645,4.07191011 7.45121495,3.9505618 L7.04299065,3.54157303 C6.57196262,3.06966292 5.94392523,2.80898876 5.27551402,2.80898876 C4.6071028,2.80898876 3.97906542,3.06966292 3.50803738,3.54157303 L3.49906542,3.5505618 C3.03252336,4.02247191 2.77682243,4.64719101 2.77682243,5.31235955 C2.77682243,5.98202247 3.03700935,6.61123596 3.50803738,7.08314607 L3.91626168,7.48764045 C4.10915888,7.68089888 4.15850467,7.97303371 4.04635514,8.22022472 L3.70990654,9.0247191 L3.6964486,9.06516854 C3.60224299,9.32134831 3.36,9.49213483 3.08635514,9.49213483 L2.16224299,9.49213483 L2.16224299,9.51460674 C0.951028037,9.68539326 0.0134579439,10.7325843 0.0134579439,11.9955056 C0.0134579439,13.3752809 1.13495327,14.4988764 2.51214953,14.4988764 L3.09084112,14.4988764 C3.36,14.4988764 3.60672897,14.6696629 3.70093458,14.9258427 L4.03738318,15.7348315 L4.05084112,15.7662921 C4.16299065,16.0134831 4.11364486,16.305618 3.92074766,16.4988764 L3.51252336,16.9078652 C2.53906542,17.8831461 2.53906542,19.4741573 3.51252336,20.4494382 L3.52149533,20.458427 C3.99252336,20.9258427 4.61607477,21.1820225 5.28,21.1820225 C5.94841121,21.1820225 6.5764486,20.9213483 7.04747664,20.4494382 L7.45570093,20.0404494 C7.57682243,19.9191011 7.73831776,19.8516854 7.91327103,19.8516854 C8.00747664,19.8516854 8.10168224,19.8741573 8.18691589,19.9101124 L9.02130841,20.2561798 L9.05719626,20.2696629 C9.3128972,20.3640449 9.48336449,20.6067416 9.48336449,20.8764045 L9.48336449,21.4561798 C9.48336449,22.8359551 10.6048598,23.9595506 11.9820561,23.9595506 L11.9820561,23.9595506 C13.3592523,23.9595506 14.4807477,22.8359551 14.4807477,21.4561798 L14.4807477,20.8764045 C14.4807477,20.6067416 14.651215,20.3595506 14.9069159,20.2651685 L15.7502804,19.9146067 L15.7816822,19.9011236 C15.8669159,19.8606742 15.9611215,19.8426966 16.0553271,19.8426966 C16.2257944,19.8426966 16.3917757,19.9101124 16.5128972,20.0314607 L16.9211215,20.4404494 C17.3921495,20.9123596 18.0201869,21.1730337 18.6885981,21.1730337 C19.3570093,21.1730337 19.9850467,20.9123596 20.4560748,20.4404494 C21.4295327,19.4651685 21.4295327,17.8741573 20.4560748,16.8988764 L20.0478505,16.4898876 C19.8549533,16.2966292 19.8011215,16.0044944 19.917757,15.7573034 L20.2497196,14.9573034 L20.2631776,14.9213483 C20.3528972,14.6696629 20.6130841,14.494382 20.886729,14.494382 L21.4654206,14.494382 C22.8426168,14.494382 23.9641121,13.3707865 23.9641121,11.9910112 C23.9506542,10.6202247 22.8336449,9.49662921 21.4519626,9.49662921 Z M21.4564486,12.6516854 L20.877757,12.6516854 C19.8325234,12.6516854 18.8859813,13.3033708 18.5226168,14.2741573 L18.2175701,15.0067416 C17.7914019,15.9505618 17.993271,17.0786517 18.724486,17.811236 L19.1327103,18.2202247 C19.3839252,18.4719101 19.3839252,18.8853933 19.1327103,19.141573 C19.0115888,19.2629213 18.8500935,19.3303371 18.6751402,19.3303371 C18.5001869,19.3303371 18.3386916,19.2629213 18.2175701,19.141573 L17.8093458,18.7325843 C17.3383178,18.2606742 16.7102804,18 16.0418692,18 C15.6874766,18 15.3285981,18.0764045 15.0056075,18.2247191 L14.2295327,18.5483146 C13.2605607,18.9123596 12.6100935,19.8516854 12.6100935,20.8898876 L12.6100935,21.4696629 C12.6100935,21.8292135 12.3185047,22.1213483 11.9596262,22.1213483 L11.9596262,22.1213483 C11.6007477,22.1213483 11.3091589,21.8292135 11.3091589,21.4741573 L11.3091589,20.894382 C11.3091589,19.8561798 10.6586916,18.9168539 9.68971963,18.552809 L8.92261682,18.2337079 C8.59962617,18.0853933 8.24523364,18.0089888 7.89084112,18.0089888 C7.22242991,18.0089888 6.59439252,18.2696629 6.12336449,18.741573 L5.71514019,19.1505618 C5.59401869,19.2719101 5.43252336,19.3393258 5.25757009,19.3393258 C5.08261682,19.3393258 4.9211215,19.2719101 4.8,19.1505618 L4.79551402,19.1460674 C4.54429907,18.894382 4.54429907,18.4808989 4.79551402,18.2292135 L5.20373832,17.8202247 C5.93943925,17.0831461 6.14130841,15.9595506 5.71065421,15.0157303 L5.4011215,14.2741573 C5.03775701,13.3033708 4.10018692,12.6516854 3.06392523,12.6516854 L2.48523364,12.6516854 C2.1353271,12.6516854 1.83476636,12.3550562 1.83476636,12 C1.83476636,11.6404494 2.12635514,11.3483146 2.48523364,11.3483146 L3.98803738,11.3483146 L3.98803738,11.1685393 C4.62953271,10.9123596 5.14990654,10.3955056 5.4011215,9.7258427 L5.71065421,8.98426966 C6.14130841,8.04044944 5.93495327,6.91235955 5.20373832,6.17977528 L4.79551402,5.7752809 C4.67439252,5.65393258 4.6071028,5.49213483 4.6071028,5.31685393 C4.6071028,5.14157303 4.67439252,4.97977528 4.79551402,4.85842697 L4.8,4.85393258 C4.9211215,4.73258427 5.08261682,4.66966292 5.25757009,4.66966292 C5.43252336,4.66966292 5.59401869,4.73707865 5.71514019,4.85842697 L6.12336449,5.26741573 C6.59439252,5.73932584 7.22242991,6 7.89084112,6 C8.24523364,6 8.60411215,5.92359551 8.92261682,5.7752809 L9.68971963,5.45617978 C10.6586916,5.09213483 11.3091589,4.15280899 11.3091589,3.11011236 L11.3091589,2.53483146 C11.3091589,2.1752809 11.6007477,1.88314607 11.9596262,1.88314607 C12.3095327,1.88314607 12.6100935,2.17977528 12.6100935,2.53483146 L12.6100935,3.11011236 C12.6100935,4.14831461 13.2605607,5.08764045 14.2295327,5.45168539 L15.0056075,5.7752809 C15.3285981,5.92359551 15.6829907,6 16.0418692,6 C16.7102804,6 17.3338318,5.73932584 17.8093458,5.26741573 L18.2130841,4.85842697 C18.3342056,4.73707865 18.4957009,4.66966292 18.6706542,4.66966292 C18.8456075,4.66966292 19.0071028,4.73707865 19.1282243,4.85842697 C19.2493458,4.97977528 19.3166355,5.14157303 19.3166355,5.31685393 C19.3166355,5.49213483 19.2493458,5.65393258 19.1282243,5.7752809 L18.724486,6.18426966 C17.988785,6.92134831 17.7869159,8.04494382 18.2130841,8.98876404 L18.5181308,9.72134831 C18.8814953,10.6921348 19.8280374,11.3438202 20.873271,11.3438202 L21.4474766,11.3438202 C21.7973832,11.3438202 22.0979439,11.6404494 22.0979439,11.9955056 C22.1024299,12.3550562 21.8063551,12.6516854 21.4564486,12.6516854 Z" id="Shape"></path>
            <path d="M11.9775701,7.97752809 C9.76149533,7.97752809 7.96261682,9.7752809 7.96261682,12 C7.96261682,14.2202247 9.75700935,16.0224719 11.9775701,16.0224719 C14.1936449,16.0224719 15.9925234,14.2247191 15.9925234,12 C15.9925234,9.77977528 14.1936449,7.97752809 11.9775701,7.97752809 Z M11.9775701,14.1662921 C10.7842991,14.1662921 9.8153271,13.1955056 9.8153271,12 C9.8153271,10.8044944 10.7842991,9.83370787 11.9775701,9.83370787 C13.1708411,9.83370787 14.1398131,10.8044944 14.1398131,12 C14.1398131,13.1955056 13.1708411,14.1662921 11.9775701,14.1662921 Z" id="Shape"></path>
        </g>
    </g>
</svg>
